<?xml version="1.0" encoding="UTF-8"?> <svg xmlns="http://www.w3.org/2000/svg" id="Layer_1" data-name="Layer 1" width="60" height="58" viewBox="0 0 60 58"><g id="surface1"><path fill="#e74c3c" d="M32,2a14.57,14.57,0,0,0-7.31,2C21,4.14,18.42,6.76,18,10.9a23.32,23.32,0,0,0,.13,5.6,8.26,8.26,0,0,1,.09,1,1.77,1.77,0,0,1-.09.56,2.12,2.12,0,0,0-.44.06c-1.65.44-2.34,2.85-1.6,5.61a5.86,5.86,0,0,0,2.88,4A22.9,22.9,0,0,0,21.52,33h0c.05.11.14.24.21.37l-13.44,6A11,11,0,0,0,2,49.33V57a3,3,0,0,0,3,3H59a3,3,0,0,0,3-3V49.33a11.06,11.06,0,0,0-6.31-9.95l-13.45-6,.24-.36A22.8,22.8,0,0,0,45,27.73c1.23-.46,2.35-2,2.88-4,.74-2.75,0-5.16-1.6-5.61a2,2,0,0,0-.43-.06,15.21,15.21,0,0,0-.92-3.44v-.11a5.5,5.5,0,0,1,1.38.36,1,1,0,0,0,1.31-.54,1,1,0,0,0,.05-.6C46,6.41,40.56,2,33,2Zm0,2h1c6.07,0,10.45,3.1,12.25,8.58a2.33,2.33,0,0,0-1.9.48,2,2,0,0,0-.29,2.3,12.09,12.09,0,0,1,.9,4.07,1,1,0,0,0,1,.95,1,1,0,0,0,.49-.16.66.66,0,0,1,.27-.12c.24.08.68,1.3.18,3.15s-1.44,2.62-1.73,2.62a1,1,0,0,0-1,.72C41.59,32.26,37.18,38,32,38s-9.59-5.74-11.28-11.4a1,1,0,0,0-.95-.72h0c-.29,0-1.24-.78-1.73-2.62s-.05-3.09.18-3.15a.66.66,0,0,1,.27.12,1,1,0,0,0,1.53-.8,11.34,11.34,0,0,1,.17-1.54,5.64,5.64,0,0,0-.08-1.64A21.14,21.14,0,0,1,20,11.1C20.31,7.91,22.19,6,25,6a1,1,0,0,0,.6-.2A12,12,0,0,1,32,4Zm-5.83,6.13a2,2,0,0,0-1.49.89l-1.6,2.43a1,1,0,0,0,1.67,1.1l1.6-2.43,1.57.76A21.09,21.09,0,0,0,37.11,15h2.55a1,1,0,0,0,0-2H37.11a19,19,0,0,1-8.32-1.92l-1.56-.76A2,2,0,0,0,26.17,10.13ZM23,35c2.43,2.94,5.56,5,9,5s6.61-2.07,9-5l13.82,6.2A9,9,0,0,1,60,49.33V57a1,1,0,0,1-1,1H5a1,1,0,0,1-1-1V49.33A9,9,0,0,1,9.14,41.2ZM7,52a1,1,0,0,0-1,1v2a1,1,0,0,0,2,0V53A1,1,0,0,0,7,52Zm5,0a1,1,0,0,0-1,1v2a1,1,0,0,0,2,0V53A1,1,0,0,0,12,52Zm5,0a1,1,0,0,0-1,1v2a1,1,0,0,0,2,0V53A1,1,0,0,0,17,52Zm5,0a1,1,0,0,0-1,1v2a1,1,0,0,0,2,0V53A1,1,0,0,0,22,52Zm5,0a1,1,0,0,0-1,1v2a1,1,0,0,0,2,0V53A1,1,0,0,0,27,52Zm5,0a1,1,0,0,0-1,1v2a1,1,0,0,0,2,0V53A1,1,0,0,0,32,52Zm5,0a1,1,0,0,0-1,1v2a1,1,0,0,0,2,0V53A1,1,0,0,0,37,52Zm5,0a1,1,0,0,0-1,1v2a1,1,0,0,0,2,0V53A1,1,0,0,0,42,52Zm5,0a1,1,0,0,0-1,1v2a1,1,0,0,0,2,0V53A1,1,0,0,0,47,52Zm5,0a1,1,0,0,0-1,1v2a1,1,0,0,0,2,0V53A1,1,0,0,0,52,52Zm5,0a1,1,0,0,0-1,1v2a1,1,0,0,0,2,0V53A1,1,0,0,0,57,52Z" transform="translate(-2 -2)"></path></g></svg> 