<?xml version="1.0" encoding="UTF-8"?> <svg xmlns="http://www.w3.org/2000/svg" id="Layer_1" data-name="Layer 1" width="60" height="60.07" viewBox="0 0 60 60.07"><g id="surface1"><path fill="#e74c3c" d="M40,9.93,11,21.32V27h3v5h2V58H13v5H10v7H70V63H67V58H64V32h2V27h3V21.32Zm0,2.14L67,22.68V25H64v5H62V60h3v5h3v3H12V65h3V60h3V30H16V25H13V22.68ZM18,25a1,1,0,1,0,1,1A1,1,0,0,0,18,25Zm4,0a1,1,0,1,0,1,1A1,1,0,0,0,22,25Zm4,0a1,1,0,1,0,1,1A1,1,0,0,0,26,25Zm4,0a1,1,0,1,0,1,1A1,1,0,0,0,30,25Zm4,0a1,1,0,1,0,1,1A1,1,0,0,0,34,25Zm4,0a1,1,0,1,0,1,1A1,1,0,0,0,38,25Zm4,0a1,1,0,1,0,1,1A1,1,0,0,0,42,25Zm4,0a1,1,0,1,0,1,1A1,1,0,0,0,46,25Zm4,0a1,1,0,1,0,1,1A1,1,0,0,0,50,25Zm4,0a1,1,0,1,0,1,1A1,1,0,0,0,54,25Zm4,0a1,1,0,1,0,1,1A1,1,0,0,0,58,25Zm4,0a1,1,0,1,0,1,1A1,1,0,0,0,62,25ZM20,30a1,1,0,1,0,1,1A1,1,0,0,0,20,30Zm2,0V60H33a1,1,0,1,0,0-2H24V32h9a1,1,0,1,0,0-2Zm25,0a1,1,0,1,0,0,2h9V58H47a1,1,0,1,0,0,2H58V30Zm13,0a1,1,0,1,0,1,1A1,1,0,0,0,60,30ZM39.08,32.92v1.92c-3.76.35-6,2.47-6,5.69,0,2.71,1.69,4.58,4.79,5.37l1.24.32v6.34c-2.07-.24-3.41-1.39-3.55-3H32.59c0,3.22,2.51,5.41,6.49,5.67V57H41V55.18c4.07-.35,6.43-2.48,6.43-5.89,0-2.88-1.65-4.65-5.14-5.49L41,43.5v-6a3.24,3.24,0,0,1,3.14,3H47c-.09-3.1-2.45-5.3-6-5.62V32.92Zm0,4.58v5.6c-2-.4-3.06-1.39-3.06-2.82A2.94,2.94,0,0,1,39.08,37.5ZM41,46.58c2.36.47,3.46,1.43,3.46,3,0,1.77-1.26,2.85-3.46,3ZM20,58a1,1,0,1,0,1,1A1,1,0,0,0,20,58Zm40,0a1,1,0,1,0,1,1A1,1,0,0,0,60,58ZM18,63a1,1,0,1,0,1,1A1,1,0,0,0,18,63Zm4,0a1,1,0,1,0,1,1A1,1,0,0,0,22,63Zm4,0a1,1,0,1,0,1,1A1,1,0,0,0,26,63Zm4,0a1,1,0,1,0,1,1A1,1,0,0,0,30,63Zm4,0a1,1,0,1,0,1,1A1,1,0,0,0,34,63Zm4,0a1,1,0,1,0,1,1A1,1,0,0,0,38,63Zm4,0a1,1,0,1,0,1,1A1,1,0,0,0,42,63Zm4,0a1,1,0,1,0,1,1A1,1,0,0,0,46,63Zm4,0a1,1,0,1,0,1,1A1,1,0,0,0,50,63Zm4,0a1,1,0,1,0,1,1A1,1,0,0,0,54,63Zm4,0a1,1,0,1,0,1,1A1,1,0,0,0,58,63Zm4,0a1,1,0,1,0,1,1A1,1,0,0,0,62,63Z" transform="translate(-10 -9.93)"></path></g></svg> 