<?xml version="1.0" encoding="UTF-8"?> <svg xmlns="http://www.w3.org/2000/svg" id="Layer_1" data-name="Layer 1" width="32" height="32" viewBox="0 0 32 32"><path fill="#e74c3c" d="M21.85,2.59a16,16,0,1,0,16,16A16,16,0,0,0,21.85,2.59Zm0,31.27A15.27,15.27,0,1,1,37.12,18.59,15.26,15.26,0,0,1,21.85,33.86Z" transform="translate(-5.85 -2.59)"></path><path fill="#e74c3c" d="M17.19,19.66c2.2,2.2,3,3,3.09,3l.7.65.68-.67,3.07-3a4.75,4.75,0,0,1,2.81,1.42,6.27,6.27,0,0,1,1.32,4.5H13a6.93,6.93,0,0,1,1.17-4.41,4.28,4.28,0,0,1,3-1.52m7.17-1L21,22s-.93-.88-3.39-3.34c-6.73.35-5.5,8-5.5,8H29.8c.76-8-5.44-8-5.44-8Z" transform="translate(-5.85 -2.59)"></path><path fill="#e74c3c" d="M26.9,18.28l.82-.94s5.15-.81,5.14,6.73a19.29,19.29,0,0,1-2,0S30.64,19.39,26.9,18.28Z" transform="translate(-5.85 -2.59)"></path><path fill="#e74c3c" d="M24.72,7.72a4.6,4.6,0,0,0-2.47.71A5.7,5.7,0,0,1,25.76,17a4.68,4.68,0,0,0-1-9.25Z" transform="translate(-5.85 -2.59)"></path><path fill="#e74c3c" d="M20.92,10.33A3.68,3.68,0,1,1,17.24,14a3.68,3.68,0,0,1,3.68-3.68m0-1A4.68,4.68,0,1,0,25.6,14a4.69,4.69,0,0,0-4.68-4.68Z" transform="translate(-5.85 -2.59)"></path></svg> 