<?xml version="1.0" encoding="UTF-8"?> <svg xmlns="http://www.w3.org/2000/svg" id="Layer_1" data-name="Layer 1" width="63.51" height="55.67" viewBox="0 0 63.51 55.67"><g id="surface1"><path fill="#e74c3c" d="M61.27,6.58a1.88,1.88,0,0,0-.55.12l-56.23,20A3,3,0,0,0,3.88,32L17.4,40.61l4.63,17A2,2,0,0,0,24,59.05h0a2,2,0,0,0,1.67-.94c.05,0,.11-.07.15-.13l6.74-8.93,11.7,7.38a3,3,0,0,0,1.6.46,3.06,3.06,0,0,0,1-.18,3,3,0,0,0,1.83-1.9L63.3,9.19a2,2,0,0,0-2-2.61ZM57.66,9.91,18,38.6,5,30.32a1,1,0,0,1,.2-1.79Zm3,1.06L48.34,49.39l-.06,0a1,1,0,0,0-1.37.34l-1,1.71a1,1,0,0,0,.34,1.38,1,1,0,0,0,.51.14,1,1,0,0,0,.53-.16L46.8,54.2a1,1,0,0,1-1.49.54L29.55,44.8ZM54.58,14.6,27.27,44.32s0,0,0,0a1.71,1.71,0,0,0-.13.23.84.84,0,0,0-.06.14l0,0L24,57.05l-4.63-17Zm-44,13a1,1,0,0,0-1,.48l-1,1.71a1,1,0,0,0,.34,1.37,1,1,0,0,0,1.37-.34l1-1.71A1,1,0,0,0,11,27.73,1,1,0,0,0,10.62,27.6Zm4.28,2.58a1,1,0,0,0-1,.47l-1,1.72a1,1,0,0,0,.34,1.37.94.94,0,0,0,.51.14,1,1,0,0,0,.86-.49l1-1.71a1,1,0,0,0-.34-1.37A1.07,1.07,0,0,0,14.9,30.18Zm4.29,2.57a1,1,0,0,0-1,.48l-1,1.71a1,1,0,0,0,.34,1.37,1,1,0,0,0,.52.15,1,1,0,0,0,.86-.49l1-1.71a1,1,0,0,0-.35-1.37A.84.84,0,0,0,19.19,32.75Zm15.86,8.73a1,1,0,0,0-1,.47l-1,1.72A1,1,0,0,0,33.36,45a1,1,0,0,0,.52.14,1,1,0,0,0,.85-.48l1-1.72a1,1,0,0,0-.34-1.37A1.09,1.09,0,0,0,35.05,41.48ZM14.16,43.22a1,1,0,0,0-.75.18l-2.5,1.82a1,1,0,0,0,1.18,1.62L14.59,45a1,1,0,0,0,.22-1.4A1,1,0,0,0,14.16,43.22Zm25.17.83a1,1,0,0,0-1,.48l-1,1.71a1,1,0,0,0,.86,1.52,1,1,0,0,0,.86-.49l1-1.71a1,1,0,0,0-.35-1.37A.84.84,0,0,0,39.33,44.05ZM28.64,46.58,30.85,48,27,53.05Zm15,.05a1,1,0,0,0-1,.48l-1,1.71a1,1,0,0,0,.34,1.37,1,1,0,0,0,1.37-.34l1-1.72A1,1,0,0,0,44,46.76.91.91,0,0,0,43.61,46.63Zm-35.56,1a1,1,0,0,0-.75.18l-5,3.65a1,1,0,0,0,.59,1.8,1,1,0,0,0,.59-.18l5-3.66a1,1,0,0,0,.22-1.4A1,1,0,0,0,8.05,47.68Zm8,1.65a1,1,0,0,0-.75.18L.29,60.44a1,1,0,0,0,.59,1.81,1,1,0,0,0,.59-.19l15-10.93a1,1,0,0,0,.22-1.4A1,1,0,0,0,16,49.33Z" transform="translate(0.12 -6.58)"></path></g></svg> 