<?xml version="1.0" encoding="UTF-8"?> <svg xmlns="http://www.w3.org/2000/svg" id="Layer_1" data-name="Layer 1" width="58.33" height="58.33" viewBox="0 0 58.33 58.33"><g id="surface1"><path fill="#e74c3c" d="M48.1,3.83A5,5,0,0,0,44.56,5.3L41,8.83a2,2,0,0,0-2.83,0l-5.65,5.65a2,2,0,0,0,0,2.83l0,.05-1.54,1.55L16.86,4.72a3.07,3.07,0,0,0-4.25,0L2.72,14.61a3,3,0,0,0,0,4.25L16.89,33,5.52,44.4a3,3,0,0,0-.87,1.88L4,54.68l-.7,4.92a1,1,0,0,0,1,1.14H4.4L9.33,60l8.44-.62a3,3,0,0,0,1.89-.87L31,47.18l14.1,14.11a3,3,0,0,0,4.25,0l9.9-9.9a3,3,0,0,0,0-4.25L45.19,33.05l1.55-1.55A2,2,0,0,0,48.1,32a2,2,0,0,0,1.42-.59l5.65-5.65a2,2,0,0,0,0-2.83l3.54-3.53a5,5,0,0,0,0-7.08L51.64,5.3A5,5,0,0,0,48.1,3.83Zm-33.37,2a1,1,0,0,1,.71.29l.71.71L14,9a1,1,0,0,0,0,1.41,1,1,0,0,0,1.41,0l2.12-2.12,2.13,2.12-3.54,3.54a1,1,0,0,0,0,1.41,1,1,0,0,0,1.41,0l3.54-3.53,2.12,2.12L21.1,16a1,1,0,0,0,0,1.41,1,1,0,0,0,1.42,0l2.12-2.12,2.12,2.12L23.22,21a1,1,0,1,0,1.42,1.41l3.53-3.53,1.46,1.46L18.31,31.63,4.13,17.44a1,1,0,0,1,0-1.41L14,6.13A1,1,0,0,1,14.73,5.84Zm33.37,0a3,3,0,0,1,2.12.85l7.07,7.07a3,3,0,0,1,0,4.24l-3.53,3.54L42.44,10.24,46,6.71A3,3,0,0,1,48.1,5.86Zm-8.49,4.38,7.08,7.07,6.36,6.37.71.71L52.34,25.8a1,1,0,0,0-1.41,0l-1.41,1.41a1,1,0,0,0,0,1.42L48.11,30h0L34,15.9l1.41-1.42a1,1,0,0,0,1.42,0l1.41-1.41a1,1,0,0,0,0-1.41ZM41,14.9a1,1,0,0,0-.71.29l-1.41,1.42a1,1,0,0,0,.7,1.7,1,1,0,0,0,.71-.29l1.41-1.41A1,1,0,0,0,41,14.9Zm3.53,3.54a1,1,0,0,0-.7.29l-1.42,1.41a1,1,0,0,0,0,1.42,1,1,0,0,0,1.42,0l1.41-1.42a1,1,0,0,0,0-1.41A1,1,0,0,0,44.56,18.44ZM34,18.78,45.32,30.09,19,56.35l-1-4.77L34.66,35a1,1,0,0,0,0-1.41,1,1,0,0,0-1.41,0L16.66,50.17,14.3,49.7l-.47-2.36L27.59,33.58a1,1,0,0,0,0-1.42,1,1,0,0,0-1.41,0L12.42,45.93,7.75,45ZM48.1,22a1,1,0,0,0-.71.3L46,23.68a1,1,0,0,0,.71,1.71,1,1,0,0,0,.7-.3l1.42-1.41A1,1,0,0,0,48.1,22ZM32.54,26.21a1,1,0,0,0-.7.29L29,29.34a1,1,0,0,0,0,1.41,1,1,0,0,0,1.41,0l2.83-2.83a1,1,0,0,0,0-1.42A1,1,0,0,0,32.54,26.21Zm11.24,8.25.66.66-2.13,2.12a1,1,0,0,0,0,1.42A1,1,0,0,0,43,39a1,1,0,0,0,.71-.29l2.12-2.12L48,38.66l-3.53,3.53a1,1,0,0,0,0,1.42,1,1,0,0,0,1.41,0l3.54-3.54,2.12,2.12-2.12,2.12a1,1,0,0,0,0,1.42,1,1,0,0,0,1.41,0l2.12-2.12L55,45.73,51.5,49.27a1,1,0,0,0,0,1.41,1,1,0,0,0,.71.29,1,1,0,0,0,.71-.29l3.53-3.54,1.42,1.42a1,1,0,0,1,0,1.41L48,59.87a1,1,0,0,1-1.41,0L32.45,45.77ZM6.61,46.8l5.28,1.06.58,2.89a1,1,0,0,0,.78.78l2.89.58,1.06,5.33L9.59,58,6,54.41Z" transform="translate(-1.84 -3.83)"></path></g></svg> 