<?xml version="1.0" ?><!DOCTYPE svg  PUBLIC '-//W3C//DTD SVG 1.1//EN'  'http://www.w3.org/Graphics/SVG/1.1/DTD/svg11.dtd'><svg enable-background="new 0 0 32 32" height="32px" id="Layer_1" version="1.1" viewBox="0 0 32 32" width="32px" xml:space="preserve" xmlns="http://www.w3.org/2000/svg" xmlns:xlink="http://www.w3.org/1999/xlink"><g id="exchange_x2C__money_exchange_x2C__dollar_x2C__euro_1_"><g><g><g><g><g><g><path d="M23,31.002c-4.411,0-8-3.59-8-8.001c0-2.513,1.146-4.831,3.145-6.359         c0.221-0.167,0.533-0.126,0.701,0.093c0.168,0.22,0.126,0.533-0.094,0.701C17.004,18.773,16,20.802,16,23.001         c0,3.86,3.141,7.001,7,7.001s7-3.141,7-7.001S26.859,16,23,16c-0.888,0-1.753,0.164-2.571,0.486         c-0.256,0.104-0.548-0.023-0.648-0.281c-0.102-0.256,0.024-0.547,0.281-0.648C20.997,15.188,21.986,15,23,15         c4.411,0,8,3.59,8,8.001S27.411,31.002,23,31.002z" fill="#e74c3c"/></g></g></g></g></g><g><g><g><g><g><path d="M9,17.002c-4.411,0-8-3.59-8-8.001C1,6.488,2.146,4.17,4.145,2.642         c0.221-0.167,0.533-0.126,0.701,0.093c0.168,0.22,0.126,0.533-0.094,0.701C3.004,4.773,2,6.802,2,9.001         c0,3.86,3.141,7.001,7,7.001s7-3.141,7-7.001S12.859,2,9,2C8.112,2,7.247,2.164,6.429,2.486         C6.173,2.59,5.881,2.463,5.78,2.205C5.679,1.949,5.805,1.658,6.062,1.557C6.997,1.188,7.986,1,9,1c4.411,0,8,3.59,8,8.001         S13.411,17.002,9,17.002z" fill="#e74c3c"/></g></g></g></g></g><g><g><g><g><g><path d="M14.5,30H13c-4.688,0-8.5-3.813-8.5-8.5v-2.915c0-0.277,0.224-0.5,0.5-0.5s0.5,0.223,0.5,0.5V21.5         c0,4.136,3.364,7.5,7.5,7.5h1.5c0.276,0,0.5,0.224,0.5,0.5S14.776,30,14.5,30z" fill="#e74c3c"/></g></g></g></g></g><g><g><g><g><g><path d="M8.75,21.533c0.187,0.201,0.176,0.519-0.025,0.706L8.723,22.24c-0.201,0.188-0.519,0.176-0.705-0.025         l-2.676-2.879c-0.188-0.201-0.494-0.201-0.682,0l-2.676,2.879c-0.188,0.201-0.506,0.213-0.707,0.025v-0.001         c-0.201-0.188-0.213-0.505-0.025-0.706l3.408-3.666c0.188-0.201,0.494-0.201,0.682,0L8.75,21.533z" fill="#e74c3c"/></g></g></g></g></g><g><g><g><g><g><path d="M27,13.915c-0.275,0-0.5-0.223-0.5-0.5V10.5C26.5,6.364,23.137,3,19,3h-1.5C17.224,3,17,2.776,17,2.5         S17.224,2,17.5,2H19c4.688,0,8.5,3.813,8.5,8.5v2.915C27.5,13.692,27.277,13.915,27,13.915z" fill="#e74c3c"/></g></g></g></g></g><g><g><g><g><g><path d="M23.251,10.469c-0.187-0.201-0.176-0.52,0.025-0.707h0.001c0.201-0.188,0.52-0.176,0.706,0.025         l2.676,2.879c0.187,0.201,0.493,0.201,0.681,0l2.677-2.879c0.187-0.201,0.505-0.213,0.706-0.025h0.001         c0.201,0.188,0.212,0.506,0.025,0.707l-3.409,3.666c-0.188,0.201-0.494,0.201-0.681,0L23.251,10.469z" fill="#e74c3c"/></g></g></g></g></g><g><g><g><g><g><g><path d="M8.5,13.001c1.402,0,2.5-1.098,2.5-2.5c0-1.135-0.771-1.962-2.291-2.458L8.596,8.006          C8.026,7.82,7.5,7.57,7.5,7.001c0-0.589,0.411-1,1-1c0.704,0,1.174,0.378,1.178,0.382c0.213,0.178,0.527,0.15,0.705-0.06          c0.178-0.212,0.15-0.526-0.061-0.704C10.292,5.594,9.576,5.001,8.5,5.001c-1.141,0-2,0.86-2,2          c0,1.374,1.344,1.813,1.785,1.955l0.113,0.037C9.477,9.345,10,9.839,10,10.501c0,0.855-0.645,1.5-1.5,1.5          c-0.928,0-1.459-0.612-1.6-0.8c-0.166-0.222-0.48-0.265-0.7-0.101c-0.222,0.166-0.267,0.479-0.101,0.7          C6.311,12.083,7.108,13.001,8.5,13.001z" fill="#e74c3c"/></g></g></g></g></g><g><g><g><g><g><path d="M8.5,14.001c0.276,0,0.5-0.224,0.5-0.5v-0.5c0-0.276-0.224-0.5-0.5-0.5S8,12.725,8,13.001v0.5          C8,13.777,8.224,14.001,8.5,14.001z" fill="#e74c3c"/></g></g></g></g></g><g><g><g><g><g><path d="M8.5,5.501c0.276,0,0.5-0.224,0.5-0.5v-0.5c0-0.276-0.224-0.5-0.5-0.5S8,4.225,8,4.501v0.5          C8,5.277,8.224,5.501,8.5,5.501z" fill="#e74c3c"/></g></g></g></g></g></g></g><g><g><g><g><path d="M23.729,27.023c-2.217,0-4.021-1.804-4.021-4.021s1.804-4.021,4.021-4.021       c0.645,0,1.285,0.156,1.854,0.452c0.245,0.127,0.341,0.429,0.213,0.674c-0.127,0.247-0.431,0.343-0.674,0.213       c-0.433-0.225-0.901-0.339-1.393-0.339c-1.665,0-3.021,1.355-3.021,3.021s1.355,3.021,3.021,3.021       c0.692,0,1.343-0.228,1.882-0.658c0.218-0.17,0.531-0.137,0.703,0.078c0.173,0.216,0.137,0.531-0.078,0.703       C25.527,26.712,24.637,27.023,23.729,27.023z" fill="#e74c3c"/></g></g></g><g><g><g><path d="M24,24.502h-4.5c-0.276,0-0.5-0.224-0.5-0.5s0.224-0.5,0.5-0.5H24c0.276,0,0.5,0.224,0.5,0.5       S24.276,24.502,24,24.502z" fill="#e74c3c"/></g></g></g><g><g><g><path d="M24,22.502h-4.5c-0.276,0-0.5-0.224-0.5-0.5s0.224-0.5,0.5-0.5H24c0.276,0,0.5,0.224,0.5,0.5       S24.276,22.502,24,22.502z" fill="#e74c3c"/></g></g></g></g></g></svg>
