<?xml version="1.0" encoding="UTF-8"?> <svg xmlns="http://www.w3.org/2000/svg" id="Layer_1" data-name="Layer 1" width="64" height="53.18" viewBox="0 0 64 53.18"><g id="surface1"><path fill="#e74c3c" d="M3,6A3,3,0,0,0,0,9V51a3,3,0,0,0,3,3H29.41l-.58,4a1,1,0,0,0,1,1.14H30l4.92-.7,6.39-.67a1,1,0,0,0,.6-.3L59.71,39.61h0l2.83-2.83a5,5,0,0,0,0-7.07l-4.25-4.25A4.9,4.9,0,0,0,56,24.18V9a3,3,0,0,0-3-3ZM3,8H53a1,1,0,0,1,1,1v3H2V9A1,1,0,0,1,3,8ZM2,14H54V24.07a5,5,0,0,0-2.78,1.39l-2.83,2.83h0l-3,3,0,0s0,0,0,0L30.55,46.19a1,1,0,0,0-.28.59L29.66,52H3a1,1,0,0,1-1-1Zm13,4a1,1,0,0,0-.71.29L11,21.59l-1.29-1.3a1,1,0,0,0-1.42,1.42l2,2a1,1,0,0,0,1.42,0l4-4a1,1,0,0,0,0-1.42A1,1,0,0,0,15,18Zm4,2a1,1,0,0,0,0,2h4a1,1,0,0,0,0-2Zm8,0a1,1,0,0,0,0,2H43a1,1,0,0,0,0-2ZM15,26a1,1,0,0,0-.71.29L11,29.59l-1.29-1.3a1,1,0,0,0-1.42,1.42l2,2a1,1,0,0,0,1.42,0l4-4a1,1,0,0,0,0-1.42A1,1,0,0,0,15,26Zm39.76,0a3,3,0,0,1,2.12.88l4.24,4.24a3,3,0,0,1,0,4.24L59,37.48,50.52,29l2.12-2.12A3,3,0,0,1,54.76,26ZM19,28a1,1,0,0,0,0,2H43a1,1,0,0,0,0-2Zm30.11,2.42,8.48,8.48-1.66,1.66-8.48-8.48ZM46,33.49,54.52,42l-.07.07a1,1,0,0,0-.27.26L41.87,54.67l-.45-4.37a1,1,0,0,0-1-.89H38.59V48L44,42.63a1,1,0,0,0-1.42-1.42l-5.32,5.32-3.79-.4ZM15,34a1,1,0,0,0-.71.29L11,37.59l-1.29-1.3a1,1,0,0,0-1.42,1.42l2,2a1,1,0,0,0,1.42,0l4-4a1,1,0,0,0,0-1.42A1,1,0,0,0,15,34Zm4,2a1,1,0,0,0,0,2H31a1,1,0,0,0,0-2ZM6,46a1,1,0,0,0-1,1v2a1,1,0,0,0,2,0V47A1,1,0,0,0,6,46Zm5,0a1,1,0,0,0-1,1v2a1,1,0,0,0,2,0V47A1,1,0,0,0,11,46Zm5,0a1,1,0,0,0-1,1v2a1,1,0,0,0,2,0V47A1,1,0,0,0,16,46Zm5,0a1,1,0,0,0-1,1v2a1,1,0,0,0,2,0V47A1,1,0,0,0,21,46Zm5,0a1,1,0,0,0-1,1v2a1,1,0,0,0,2,0V47A1,1,0,0,0,26,46Zm6.14,2,4.45.47v1.93a1,1,0,0,0,1,1h1.93L40,55.92l-4.85.51-3.57-3.56Z" transform="translate(0 -6)"></path></g></svg> 