<?xml version="1.0" encoding="UTF-8"?> <svg xmlns="http://www.w3.org/2000/svg" id="Layer_1" data-name="Layer 1" width="60" height="56" viewBox="0 0 60 56"><g id="surface1"><path fill="#e74c3c" d="M23.66,4a5,5,0,0,0-3.54,1.46l-6.66,6.66A5,5,0,0,0,12,15.66v6.77L3.45,27.56A3,3,0,0,0,2,30.13V57a3,3,0,0,0,3,3H59a3,3,0,0,0,3-3V30.13a3,3,0,0,0-1.45-2.57L52,22.43V7a3,3,0,0,0-3-3ZM24,6H49a1,1,0,0,1,1,1V31a1,1,0,0,0,2,0V24.77l7.52,4.51a1,1,0,0,1,.48.85v1.22l-26.77,12a3.09,3.09,0,0,1-2.46,0L4,31.35V30.13a1,1,0,0,1,.48-.85L12,24.77V31a1,1,0,0,0,2,0V16h7a3,3,0,0,0,3-3Zm-2,.5V13a1,1,0,0,1-1,1H14.5a2.73,2.73,0,0,1,.38-.46l6.66-6.66A2.73,2.73,0,0,1,22,6.5ZM31,16a7,7,0,0,0-7,7v6a7,7,0,0,0,7,7h6a1,1,0,0,0,0-2H31a5,5,0,0,1-5-5V23a5,5,0,0,1,5-5h2a5,5,0,0,1,5,5v6a1,1,0,0,1-2,0V24a4,4,0,0,0-8,0v4a4,4,0,0,0,4,4,3.93,3.93,0,0,0,2.71-1.08A3,3,0,0,0,40,29V23a7,7,0,0,0-7-7Zm1,6a2,2,0,0,1,2,2v4a2,2,0,0,1-4,0V24A2,2,0,0,1,32,22ZM4,33.55,30,45.18a5.1,5.1,0,0,0,4.1,0L60,33.55V57a1,1,0,0,1-1,1H5a1,1,0,0,1-1-1ZM7,50a1,1,0,0,0-1,1v2a1,1,0,0,0,2,0V51A1,1,0,0,0,7,50Zm5,0a1,1,0,0,0-1,1v2a1,1,0,0,0,2,0V51A1,1,0,0,0,12,50Zm5,0a1,1,0,0,0-1,1v2a1,1,0,0,0,2,0V51A1,1,0,0,0,17,50Zm5,0a1,1,0,0,0-1,1v2a1,1,0,0,0,2,0V51A1,1,0,0,0,22,50Zm5,0a1,1,0,0,0-1,1v2a1,1,0,0,0,2,0V51A1,1,0,0,0,27,50Zm5,0a1,1,0,0,0-1,1v2a1,1,0,0,0,2,0V51A1,1,0,0,0,32,50Zm5,0a1,1,0,0,0-1,1v2a1,1,0,0,0,2,0V51A1,1,0,0,0,37,50Zm5,0a1,1,0,0,0-1,1v2a1,1,0,0,0,2,0V51A1,1,0,0,0,42,50Zm5,0a1,1,0,0,0-1,1v2a1,1,0,0,0,2,0V51A1,1,0,0,0,47,50Zm5,0a1,1,0,0,0-1,1v2a1,1,0,0,0,2,0V51A1,1,0,0,0,52,50Zm5,0a1,1,0,0,0-1,1v2a1,1,0,0,0,2,0V51A1,1,0,0,0,57,50Z" transform="translate(-2 -4)"></path></g></svg> 