<?xml version="1.0" encoding="UTF-8"?> <svg xmlns="http://www.w3.org/2000/svg" id="Layer_1" data-name="Layer 1" width="28" height="24" viewBox="0 0 28 24"><path fill="#e74c3c" d="M33.33,12.08V7.58a1.47,1.47,0,0,0-1.5-1.5h-25a1.47,1.47,0,0,0-1.5,1.5v20.5a2,2,0,0,0,2,2H31.44a2.14,2.14,0,0,0,1.89-2Zm-26,17a1,1,0,0,1-1-1v-16h20.5a.5.5,0,0,0,0-1H6.33V7.58a.5.5,0,0,1,.5-.5h25a.5.5,0,0,1,.5.5v20.5a1,1,0,0,1-1,1Z" transform="translate(-5.33 -6.08)"></path><path fill="#e74c3c" d="M8.83,8.08a.47.47,0,0,0-.5.5v1a.5.5,0,0,0,1,0v-1A.47.47,0,0,0,8.83,8.08Zm2,0a.47.47,0,0,0-.5.5v1a.5.5,0,0,0,1,0v-1A.47.47,0,0,0,10.83,8.08Zm3,0a.47.47,0,0,0-.5.5v1a.5.5,0,0,0,1,0v-1A.47.47,0,0,0,13.83,8.08Zm2,0a.47.47,0,0,0-.5.5v1a.5.5,0,1,0,1,0v-1A.47.47,0,0,0,15.83,8.08Zm3,0a.47.47,0,0,0-.5.5v1a.5.5,0,0,0,1,0v-1A.47.47,0,0,0,18.83,8.08Zm2,0a.47.47,0,0,0-.5.5v1a.5.5,0,0,0,1,0v-1A.47.47,0,0,0,20.83,8.08Zm3,0a.47.47,0,0,0-.5.5v1a.5.5,0,0,0,1,0v-1A.47.47,0,0,0,23.83,8.08Zm2,0a.47.47,0,0,0-.5.5v1a.5.5,0,0,0,1,0v-1A.47.47,0,0,0,25.83,8.08Zm3,0a.47.47,0,0,0-.5.5v1a.5.5,0,0,0,1,0v-1A.47.47,0,0,0,28.83,8.08Zm2,0a.47.47,0,0,0-.5.5v1a.5.5,0,0,0,1,0v-1A.47.47,0,0,0,30.83,8.08Z" transform="translate(-5.33 -6.08)"></path><path fill="#e74c3c" d="M26.33,23.08v2H12.45v-2H26.33m1-1H11.45v4H27.33v-4Z" transform="translate(-5.33 -6.08)"></path><rect x="6.5" y="9.64" width="15" height="2.86"></rect><path fill="#e74c3c" d="M26.33,16.21v1.87h-14V16.21h14m1-1h-16v3.87h16V15.21Z" transform="translate(-5.33 -6.08)"></path><path fill="#e74c3c" d="M8.82,19.31,8.11,20a.48.48,0,0,0,0,.7.5.5,0,0,0,.71,0l.7-.7a.5.5,0,0,0,0-.71A.48.48,0,0,0,8.82,19.31Z" transform="translate(-5.33 -6.08)"></path><path fill="#e74c3c" d="M8.82,13.65a.51.51,0,0,0-.71,0,.5.5,0,0,0,0,.71l.71.71a.5.5,0,0,0,.7,0,.5.5,0,0,0,0-.71Z" transform="translate(-5.33 -6.08)"></path><path fill="#e74c3c" d="M7.33,17.19a.5.5,0,0,0,.5.5h1a.48.48,0,0,0,.43-.25.43.43,0,0,0,.07-.25.51.51,0,0,0-.5-.5h-1A.5.5,0,0,0,7.33,17.19Z" transform="translate(-5.33 -6.08)"></path><path fill="#e74c3c" d="M29.84,15.07l.71-.71a.5.5,0,1,0-.71-.71l-.71.71a.5.5,0,0,0,.71.71Z" transform="translate(-5.33 -6.08)"></path><path fill="#e74c3c" d="M29.84,20.72a.5.5,0,0,0,.71,0,.5.5,0,0,0,0-.7l-.71-.71a.5.5,0,0,0-.71,0,.51.51,0,0,0,0,.71Z" transform="translate(-5.33 -6.08)"></path><path fill="#e74c3c" d="M31.33,17.18a.5.5,0,0,0-.5-.5h-1a.5.5,0,0,0,0,1h1a.51.51,0,0,0,.25-.06A.51.51,0,0,0,31.33,17.18Z" transform="translate(-5.33 -6.08)"></path></svg> 