<?xml version="1.0" encoding="UTF-8"?> <svg xmlns="http://www.w3.org/2000/svg" id="Layer_1" data-name="Layer 1" width="64" height="62" viewBox="0 0 64 62"><g id="surface1"><path fill="#e74c3c" d="M26,2a14.58,14.58,0,0,0-7.31,2C15,4.14,12.42,6.76,12,10.9a22.91,22.91,0,0,0,.14,5.6,7.76,7.76,0,0,1,.09,1l-.09.57a2,2,0,0,0-.44.06c-1.65.44-2.34,2.85-1.6,5.61.54,2,1.66,3.49,2.88,3.95a23.57,23.57,0,0,0,2.72,5.6L6.48,38.67A13,13,0,0,0,0,49.92V57a3,3,0,0,0,3,3H41.64A13,13,0,1,0,55.22,38.72l-8.69-5.63a17.12,17.12,0,0,0,3-5.48,4.52,4.52,0,0,0,2.19-3.08,5.74,5.74,0,0,0,.14-2.61A2.25,2.25,0,0,0,50.39,20l-.16,0a10.76,10.76,0,0,0-.55-2.08,5,5,0,0,1,.55.17,1,1,0,0,0,1-.15,1,1,0,0,0,.34-1A10.84,10.84,0,0,0,40.41,8h-.74l-.48,0C36.55,4.16,32.29,2,27,2Zm0,2h1c6.07,0,10.45,3.1,12.25,8.58a2.28,2.28,0,0,0-1.89.48,2,2,0,0,0-.29,2.3,12.43,12.43,0,0,1,.9,4.07,1,1,0,0,0,.54.85,1,1,0,0,0,1-.06.63.63,0,0,1,.27-.11c.24.08.68,1.3.18,3.15s-1.43,2.62-1.73,2.62a1,1,0,0,0-.95.71C35.59,32.26,31.18,38,26,38s-9.59-5.74-11.28-11.41a1,1,0,0,0-1-.71c-.3,0-1.24-.78-1.73-2.62s-.06-3.09.17-3.15a.57.57,0,0,1,.27.11A1,1,0,0,0,14,19.43a11.16,11.16,0,0,1,.17-1.54,6.1,6.1,0,0,0-.08-1.64A21.09,21.09,0,0,1,14,11.1C14.31,7.91,16.18,6,19,6a1,1,0,0,0,.6-.2A12,12,0,0,1,26,4Zm14.35,6h.07c4.27,0,7.39,2.12,8.77,5.87a1.75,1.75,0,0,0-1.23.45,1.7,1.7,0,0,0-.27,2,8.64,8.64,0,0,1,.65,3,1,1,0,0,0,1.53.81,3.34,3.34,0,0,1,0,2,2.93,2.93,0,0,1-1,1.77h0a1,1,0,0,0-.95.71,14,14,0,0,1-4.45,6.9A1,1,0,1,0,44.61,35c.17-.13.34-.28.5-.42L50.47,38A12.82,12.82,0,0,0,46,39c-.16-.11-.31-.23-.48-.33L36.3,33.33A23.57,23.57,0,0,0,39,27.73c1.22-.46,2.34-1.95,2.87-3.95.74-2.76.06-5.17-1.59-5.61a2,2,0,0,0-.44-.06,15.05,15.05,0,0,0-.92-3.44l0-.11a5.43,5.43,0,0,1,1.38.36,1,1,0,0,0,1.35-1.13A17.16,17.16,0,0,0,40.35,10Zm-19.82.16a2,2,0,0,0-1.85.89l-1.6,2.43a1,1,0,0,0,.28,1.39,1,1,0,0,0,.55.16,1,1,0,0,0,.84-.45l1.6-2.43,1.56.76A21.13,21.13,0,0,0,31.11,15h2.56a1,1,0,0,0,0-2H31.11a19.07,19.07,0,0,1-8.32-1.92l-1.56-.76A1.79,1.79,0,0,0,20.53,10.13ZM16.91,34.94C19.34,37.91,22.5,40,26,40s6.66-2.09,9.09-5L44,40.08A13,13,0,0,0,40.06,58H3a1,1,0,0,1-1-1V49.92A11,11,0,0,1,7.49,40.4ZM51,40A11,11,0,1,1,40,51,11,11,0,0,1,51,40ZM18.06,40a1,1,0,0,0-.51,1.89l8,4A1.06,1.06,0,0,0,26,46a1,1,0,0,0,.45-.11l8-4a1,1,0,1,0-.9-1.78L26,43.88l-7.55-3.77A1,1,0,0,0,18.06,40ZM51,44a1,1,0,0,0-1,1v5H45a1,1,0,0,0,0,2h5v5a1,1,0,0,0,2,0V52h5a1,1,0,0,0,0-2H52V45A1,1,0,0,0,51,44ZM6,52a1,1,0,0,0-1,1v2a1,1,0,0,0,2,0V53A1,1,0,0,0,6,52Zm5,0a1,1,0,0,0-1,1v2a1,1,0,0,0,2,0V53A1,1,0,0,0,11,52Zm5,0a1,1,0,0,0-1,1v2a1,1,0,0,0,2,0V53A1,1,0,0,0,16,52Zm5,0a1,1,0,0,0-1,1v2a1,1,0,0,0,2,0V53A1,1,0,0,0,21,52Zm5,0a1,1,0,0,0-1,1v2a1,1,0,0,0,2,0V53A1,1,0,0,0,26,52Zm5,0a1,1,0,0,0-1,1v2a1,1,0,0,0,2,0V53A1,1,0,0,0,31,52Zm5,0a1,1,0,0,0-1,1v2a1,1,0,0,0,2,0V53A1,1,0,0,0,36,52Z" transform="translate(0 -2)"></path></g></svg> 