<?xml version="1.0" encoding="UTF-8"?> <svg xmlns="http://www.w3.org/2000/svg" id="Layer_1" data-name="Layer 1" width="60" height="59.96" viewBox="0 0 60 59.96"><g id="surface1"><path fill="#e74c3c" d="M41,2A18,18,0,1,0,59,20,18,18,0,0,0,41,2Zm0,2A16,16,0,1,1,25,20,16,16,0,0,1,41,4Zm0,3a13,13,0,1,0,10.83,5.82,1,1,0,0,0-1.66,1.11A11,11,0,1,1,41,9c.31,0,.61,0,.92.05a1,1,0,0,0,.16-2C41.73,7,41.37,7,41,7Zm5,1.1a1,1,0,0,0-.94.58A1,1,0,0,0,45.58,10a10.79,10.79,0,0,1,1.84,1.08,1,1,0,0,0,.58.18,1,1,0,0,0,.81-.41,1,1,0,0,0-.23-1.4A12.79,12.79,0,0,0,46.42,8.2,1.12,1.12,0,0,0,46,8.1ZM41,11a1,1,0,0,0-1,1v1a4,4,0,0,0,0,8h2a2,2,0,0,1,0,4V23a1,1,0,0,0-2,0v2a2,2,0,0,1-2-2,1,1,0,0,0-2,0,4,4,0,0,0,4,4v1a1,1,0,0,0,2,0V27a4,4,0,0,0,0-8V17a1,1,0,0,0-2,0v2a2,2,0,0,1,0-4h2a2,2,0,0,1,2,2,1,1,0,0,0,2,0,4,4,0,0,0-4-4V12A1,1,0,0,0,41,11ZM18.33,35.32a13.87,13.87,0,0,0-1.82.09L4.65,36.8A3,3,0,0,0,2,39.8V52.44a3,3,0,0,0,3,3,3,3,0,0,0,.73-.09l6.55-1.64a7.05,7.05,0,0,1,5,.6l12.58,6.63a9,9,0,0,0,8.34,0l21.28-11a4.69,4.69,0,0,0,.71-7.86l0,0a4.66,4.66,0,0,0-4-.83L42.71,44.7a5,5,0,0,0-5.1-3.39l-2.18.16A5,5,0,0,1,33,41l-9.4-4.44A13,13,0,0,0,18.33,35.32Zm-.09,2a11,11,0,0,1,4.46,1.07l9.4,4.44a7,7,0,0,0,3.49.65l2.19-.16A3,3,0,0,1,41,46.09a1.85,1.85,0,0,1,0,.23v.41a1,1,0,0,1-.59.91l-3,1.33a9,9,0,0,1-7,.15l-5-2A1,1,0,1,0,24.67,49l5,2a11,11,0,0,0,8.6-.18l3-1.33A3,3,0,0,0,43,46.71l13.64-3.54a2.68,2.68,0,0,1,1.91,5v0l-21.28,11a7,7,0,0,1-6.48,0l-12.58-6.6a9,9,0,0,0-6.37-.77L5.24,53.41A1,1,0,0,1,4,52.68a.83.83,0,0,1,0-.27V39.78a1,1,0,0,1,.88-1L16.7,37.39A11.34,11.34,0,0,1,18.24,37.32ZM7,40a1,1,0,0,0,0,2H9a1,1,0,0,0,0-2Zm0,5a1,1,0,0,0,0,2H9a1,1,0,0,0,0-2Zm0,5a1,1,0,0,0,0,2H9a1,1,0,0,0,0-2Z" transform="translate(-2 -2)"></path></g></svg> 