<?xml version="1.0" encoding="UTF-8"?> <svg xmlns="http://www.w3.org/2000/svg" id="Layer_1" data-name="Layer 1" width="50.04" height="60" viewBox="0 0 50.04 60"><g id="surface1"><path fill="#e74c3c" d="M29.38,2,22.59,2,16.92,2a3.7,3.7,0,0,0-3.64,3.12q-.7,4.58-1.42,9.15c-.45,2.89-.92,5.78-1.38,8.67L6.89,45.73q-.5,3.12-1,6.23a2.6,2.6,0,0,0,.55,2.16A2.69,2.69,0,0,0,8.54,55h9.6l-.56,3.78a2.81,2.81,0,0,0,.54,2.32,2.73,2.73,0,0,0,2.15.87c1.6,0,3.09,0,4.61,0h3.28c2.27,0,3.4-1,3.78-3.2.56-3.37,1.21-7.36,1.79-11.33a1.49,1.49,0,0,1,1.54-1.41A26.3,26.3,0,0,0,43.93,45a15.62,15.62,0,0,0,9.15-7.22A22.2,22.2,0,0,0,55.88,28a12.33,12.33,0,0,0-1.38-6.85A8.69,8.69,0,0,0,51.56,18a15.5,15.5,0,0,0-.05-6.25A11,11,0,0,0,46.73,4.9c-3.51-2.34-7.46-2.73-10.51-2.81C34,2,31.66,2,29.38,2ZM28.25,4c2.64,0,5.29,0,7.92.09,4.13.11,7,.87,9.46,2.48a9.07,9.07,0,0,1,3.93,5.67,16.48,16.48,0,0,1-.49,7.83,26,26,0,0,1-1.46,4.14C45.2,29.4,41,32.45,34.75,33.52a38.27,38.27,0,0,1-6.72.34c-1,0-2,0-3,0h-.11a3.26,3.26,0,0,0-.9.1,4.06,4.06,0,0,0-3.1,3.51c-.3,1.8-.58,3.61-.87,5.42l-.4,2.54c-.39,2.5-.79,5-1.2,7.56H8.54A.72.72,0,0,1,8,52.82a.7.7,0,0,1-.1-.55c.32-2.07.65-4.15,1-6.22L12.45,23.3q.71-4.35,1.38-8.67c.48-3.07,1-6.11,1.42-9.17A1.72,1.72,0,0,1,16.92,4L22.6,4ZM39.6,16.07c-2.53,0-5.06,0-7.59,0l-4.87,0a3.34,3.34,0,0,0-3.28,2.8c-.4,2.64-.81,5.26-1.22,7.89-.2,1.28-.41,2.56-.61,3.84a1,1,0,0,0,.83,1.14H23a1,1,0,0,0,1-.84c.21-1.28.41-2.56.61-3.84.42-2.64.82-5.26,1.23-7.9a1.32,1.32,0,0,1,1.3-1.1l4.88,0c2.52,0,5,0,7.56,0a1,1,0,0,0,1-1A1,1,0,0,0,39.6,16.07Zm4.17.07a1,1,0,0,0-1,1,1,1,0,0,0,1,1,22.91,22.91,0,0,1,2.5.18h.13a1,1,0,0,0,.12-2A24,24,0,0,0,43.77,16.14Zm7.33,4a6.8,6.8,0,0,1,1.64,2,10.29,10.29,0,0,1,1.14,5.76,20.21,20.21,0,0,1-2.54,8.89,13.55,13.55,0,0,1-8,6.31,24.3,24.3,0,0,1-8,1,3.46,3.46,0,0,0-3.56,3.12c-.58,4-1.23,7.93-1.79,11.29-.21,1.27-.51,1.52-1.82,1.53-2.72,0-5.14,0-7.86,0a.94.94,0,0,1-.64-.17,1,1,0,0,1-.08-.73l.74-5v0c.45-2.82.9-5.59,1.33-8.33l.4-2.55c.28-1.8.56-3.6.86-5.39a2.09,2.09,0,0,1,1.64-1.91,2.71,2.71,0,0,1,.46,0h.1c1,0,1.95,0,2.93,0a39.27,39.27,0,0,0,7.06-.38c6.85-1.17,11.67-4.68,14.34-10.43A27,27,0,0,0,51,20.57C51,20.44,51.07,20.3,51.1,20.16ZM11,47a1,1,0,0,0-1,1v2a1,1,0,0,0,2,0V48A1,1,0,0,0,11,47Zm5,0a1,1,0,0,0-1,1v2a1,1,0,0,0,2,0V48A1,1,0,0,0,16,47Zm7,7a1,1,0,0,0-1,1v2a1,1,0,0,0,2,0V55A1,1,0,0,0,23,54Zm5,0a1,1,0,0,0-1,1v2a1,1,0,0,0,2,0V55A1,1,0,0,0,28,54Z" transform="translate(-5.87 -2)"></path></g></svg> 