<?xml version="1.0" encoding="UTF-8"?> <svg xmlns="http://www.w3.org/2000/svg" id="Layer_1" data-name="Layer 1" width="56" height="48" viewBox="0 0 56 48"><g id="surface1"><path fill="#e74c3c" d="M7,8a3,3,0,0,0-3,3V53a3,3,0,0,0,3,3H57a3,3,0,0,0,3-3V11a3,3,0,0,0-3-3Zm0,2H57a1,1,0,0,1,1,1V53a1,1,0,0,1-1,1H7a1,1,0,0,1-1-1V20H47a1,1,0,0,0,0-2H6V11A1,1,0,0,1,7,10Zm3,2a1,1,0,0,0-1,1v2a1,1,0,0,0,2,0V13A1,1,0,0,0,10,12Zm5,0a1,1,0,0,0-1,1v2a1,1,0,0,0,2,0V13A1,1,0,0,0,15,12Zm5,0a1,1,0,0,0-1,1v2a1,1,0,0,0,2,0V13A1,1,0,0,0,20,12Zm5,0a1,1,0,0,0-1,1v2a1,1,0,0,0,2,0V13A1,1,0,0,0,25,12Zm5,0a1,1,0,0,0-1,1v2a1,1,0,0,0,2,0V13A1,1,0,0,0,30,12Zm5,0a1,1,0,0,0-1,1v2a1,1,0,0,0,2,0V13A1,1,0,0,0,35,12Zm5,0a1,1,0,0,0-1,1v2a1,1,0,0,0,2,0V13A1,1,0,0,0,40,12Zm5,0a1,1,0,0,0-1,1v2a1,1,0,0,0,2,0V13A1,1,0,0,0,45,12Zm5,0a1,1,0,0,0-1,1v2a1,1,0,0,0,2,0V13A1,1,0,0,0,50,12Zm5,0a1,1,0,0,0-1,1v2a1,1,0,0,0,2,0V13A1,1,0,0,0,55,12Zm-4,6a1,1,0,0,0,0,2h4a1,1,0,0,0,0-2ZM32,24a13,13,0,0,0-8.84,22.5,1.2,1.2,0,0,0,.13.21,1.11,1.11,0,0,0,.34.22,13,13,0,0,0,18.3-18.3,1.11,1.11,0,0,0-.22-.34,1.2,1.2,0,0,0-.21-.13A13,13,0,0,0,32,24Zm0,2a11,11,0,0,1,7.56,3L24,44.56A11,11,0,0,1,32,26Zm8.88,4.53A11,11,0,0,1,25.53,45.88Z" transform="translate(-4 -8)"></path></g></svg> 