<?xml version="1.0" encoding="UTF-8"?> <svg xmlns="http://www.w3.org/2000/svg" id="Layer_1" data-name="Layer 1" width="32" height="19" viewBox="0 0 32 19"><defs><style>.cls-1{fill-rule:evenodd;}</style></defs><path fill="#e74c3c" id="_1" data-name=" 1" class="cls-1" d="M3,0H29a3,3,0,0,1,2.13.88A3,3,0,0,1,32,3V16a3,3,0,0,1-.88,2.11A3,3,0,0,1,29,19H3a3,3,0,0,1-2.13-.88A3,3,0,0,1,0,16V3A3,3,0,0,1,.88.88,3,3,0,0,1,3,0ZM29,1H3A2,2,0,0,0,1,3V16a2,2,0,0,0,2,2H29a2,2,0,0,0,2-2V3a2,2,0,0,0-2-2ZM26,9.75c0-1.42-.69-2.54-2-2.54a2.24,2.24,0,0,0-2.13,2.35c0,.06,0,.11,0,.17a2.22,2.22,0,0,0,1.88,2.49,2,2,0,0,0,.42,0,2.93,2.93,0,0,0,1.53-.36v-1.1a3,3,0,0,1-1.35.3.93.93,0,0,1-1.07-.75s0-.06,0-.09H26c0-.07,0-.36,0-.49Zm-18.55-1c0-.22.18-.3.47-.3a3.17,3.17,0,0,1,1.38.35V7.46a3.83,3.83,0,0,0-1.38-.25A1.62,1.62,0,0,0,6.08,8.55a1.79,1.79,0,0,0,0,.23c0,1.52,2.11,1.28,2.11,1.94,0,.26-.22.34-.53.34a3.52,3.52,0,0,1-1.52-.44v1.31a3.77,3.77,0,0,0,1.52.32c1.15,0,1.94-.57,1.94-1.56,0-1.65-2.12-1.36-2.12-2ZM11.21,6.1l-1.35.29v4.44a1.39,1.39,0,0,0,1.35,1.42h.08a2.15,2.15,0,0,0,1-.18V10.94c-.18.07-1,.33-1-.49v-2h1V7.3H11.2V6.1ZM14,7.71l-.09-.41h-1.2v4.85h1.39V8.86a1,1,0,0,1,1.05-.28V7.3A.94.94,0,0,0,14,7.71Zm1.49,4.44h1.39V7.3H15.47Zm0-5.27,1.39-.3V5.46l-1.39.29V6.88Zm4.28.33a1.55,1.55,0,0,0-1.08.43L18.6,7.3H17.38v6.46l1.38-.3V11.9a1.58,1.58,0,0,0,1,.34c1,0,1.89-.79,1.89-2.55,0-1.61-.92-2.48-1.89-2.48ZM19.42,11a.85.85,0,0,1-.65-.26V8.71a.83.83,0,0,1,.66-.27,1.41,1.41,0,0,1,0,2.59Zm3.85-1.81a.78.78,0,0,1,.65-.88H24a.77.77,0,0,1,.71.8.28.28,0,0,0,0,.09H23.27Z"></path></svg> 