<?xml version="1.0" encoding="UTF-8"?> <svg xmlns="http://www.w3.org/2000/svg" id="Layer_1" data-name="Layer 1" viewBox="0 0 56 48"><g id="surface1"><path fill="#e74c3c" d="M7,8a3,3,0,0,0-3,3V53a3,3,0,0,0,3,3H57a3,3,0,0,0,3-3V11a3,3,0,0,0-3-3Zm0,2H57a1,1,0,0,1,1,1V53a1,1,0,0,1-1,1H7a1,1,0,0,1-1-1V20H47a1,1,0,0,0,0-2H6V11A1,1,0,0,1,7,10Zm3,2a1,1,0,0,0-1,1v2a1,1,0,0,0,2,0V13A1,1,0,0,0,10,12Zm5,0a1,1,0,0,0-1,1v2a1,1,0,0,0,2,0V13A1,1,0,0,0,15,12Zm5,0a1,1,0,0,0-1,1v2a1,1,0,0,0,2,0V13A1,1,0,0,0,20,12Zm5,0a1,1,0,0,0-1,1v2a1,1,0,0,0,2,0V13A1,1,0,0,0,25,12Zm5,0a1,1,0,0,0-1,1v2a1,1,0,0,0,2,0V13A1,1,0,0,0,30,12Zm5,0a1,1,0,0,0-1,1v2a1,1,0,0,0,2,0V13A1,1,0,0,0,35,12Zm5,0a1,1,0,0,0-1,1v2a1,1,0,0,0,2,0V13A1,1,0,0,0,40,12Zm5,0a1,1,0,0,0-1,1v2a1,1,0,0,0,2,0V13A1,1,0,0,0,45,12Zm5,0a1,1,0,0,0-1,1v2a1,1,0,0,0,2,0V13A1,1,0,0,0,50,12Zm5,0a1,1,0,0,0-1,1v2a1,1,0,0,0,2,0V13A1,1,0,0,0,55,12Zm-4,6a1,1,0,0,0,0,2h4a1,1,0,0,0,0-2ZM34.84,24a1,1,0,0,0-.81.75l-6,24a1,1,0,0,0,1.94.49l6-24A1,1,0,0,0,35.24,24,1.08,1.08,0,0,0,34.84,24ZM23,30a1,1,0,0,0-.71.29l-6,6a1,1,0,0,0,0,1.42l6,6a1,1,0,0,0,1.42,0,1,1,0,0,0,0-1.42L18.41,37l5.3-5.29a1,1,0,0,0,0-1.42A1,1,0,0,0,23,30Zm18,0a1,1,0,0,0-.71.29,1,1,0,0,0,0,1.42L45.59,37l-5.3,5.29a1,1,0,0,0,0,1.42,1,1,0,0,0,1.42,0l6-6a1,1,0,0,0,0-1.42l-6-6A1,1,0,0,0,41,30Z" transform="translate(-4 -8)"></path></g></svg> 