<?xml version="1.0" encoding="UTF-8"?> <svg xmlns="http://www.w3.org/2000/svg" id="Layer_1" data-name="Layer 1" width="38.1" height="24.41" viewBox="0 0 38.1 24.41"><defs><style>.cls-1{fill:#fff;opacity:0;}.cls-1,.cls-2{fill-rule:evenodd;}</style></defs><path fill="#e74c3c" class="cls-1" d="M23.14,22.76c-1.27-.73-2.54-1.47-3.83-2.18a.48.48,0,0,0-.24-.06H4.43c-2.6-.05-3.4-.85-3.4-3.4,0-3,0-7.77,0-10.63V4.43C1,1.79,1.79,1,4.43,1H34.69c2.64,0,3.4.76,3.4,3.4s0,5.69,0,8.52c0,1.42,0,2.81,0,4.17,0,2.51-.89,3.4-3.4,3.4-1.33,0-2.57,0-3.78,0l-3.5,0-3.46,0a.5.5,0,0,0-.41.22.49.49,0,0,0-.05.47,18.65,18.65,0,0,0,1,2l.26.49Z" transform="translate(-0.52 -0.52)"></path><path fill="#e74c3c" d="M14.65,1.52h20c2.36,0,2.9.54,2.9,2.92,0,2.74,0,5.67,0,8.5,0,1.41,0,2.81,0,4.17,0,2.25-.65,2.9-2.88,2.9-1.22,0-2.43,0-3.8,0l-3.5,0L24,20a1,1,0,0,0-.83.44,1,1,0,0,0-.1.94c.14.33.29.66.45,1l-.07,0c-1.25-.73-2.55-1.49-3.85-2.19a1,1,0,0,0-.48-.13H4.46C2.1,20,1.53,19.4,1.53,17.12c0-3,0-7.77,0-10.63V4.43c0-2.36.54-2.9,2.91-2.9H14.65m0-1H4.43c-2.94,0-3.9,1-3.9,3.9,0,1.69,0,8.67,0,12.69,0,2.84,1,3.84,3.9,3.9H19.07c2.31,1.26,4.54,2.62,6.83,3.91-.52-1.3-1.43-2.61-1.95-3.91,2.52,0,4.69,0,7,0,1.21,0,2.44,0,3.78,0,2.75,0,3.9-1.06,3.9-3.9,0-4.11.08-8.58,0-12.69,0-2.93-1-3.9-3.9-3.9Z" transform="translate(-0.52 -0.52)"></path><path fill="#e74c3c" class="cls-2" d="M17,4.66a1.12,1.12,0,0,1,1.71.23,1.07,1.07,0,0,1,.05,1A15.18,15.18,0,0,0,17.55,10a26.49,26.49,0,0,0-.44,5.55,1.09,1.09,0,0,1-.71,1.16,1.34,1.34,0,0,1-1.23-.55,13.18,13.18,0,0,1-2.73-5.34c-.57,1.13-1.14,2.26-1.69,3.39a8,8,0,0,1-1.42,2.16c-.26.26-.7.49-1,.23a3.9,3.9,0,0,1-.84-1.76A74.23,74.23,0,0,1,5.69,6.24,1.1,1.1,0,0,1,6.27,5a1.24,1.24,0,0,1,1.21.12,1.31,1.31,0,0,1,.34.82c.33,2.23.73,4.46,1.27,6.66l2.77-5.27a1.7,1.7,0,0,1,.55-.67.9.9,0,0,1,1.12.1,1.88,1.88,0,0,1,.38.92,23.21,23.21,0,0,0,1.19,4.26A24.68,24.68,0,0,1,16.37,5.8,4.77,4.77,0,0,1,17,4.66Zm5.2,1.11a3.22,3.22,0,0,1,2.75,1,4.3,4.3,0,0,1,1,2.26,7.08,7.08,0,0,1-.76,4.12,4.54,4.54,0,0,1-1.59,1.8,3.25,3.25,0,0,1-3.41-.11,3.69,3.69,0,0,1-1.43-2.4,6.58,6.58,0,0,1,1.85-5.9,3,3,0,0,1,1.62-.73Zm.21,2.16a2.15,2.15,0,0,0-1,1A3.84,3.84,0,0,0,21,12.47a1.06,1.06,0,0,0,.7.67,1.22,1.22,0,0,0,1-.38,3.43,3.43,0,0,0,1-2,3.34,3.34,0,0,0-.42-2.51.81.81,0,0,0-.93-.31Zm7.78-2.16a3.2,3.2,0,0,1,2.71.91,4.14,4.14,0,0,1,1,2.42,7,7,0,0,1-.75,4,4.54,4.54,0,0,1-1.62,1.85,3.28,3.28,0,0,1-3.29,0,3.41,3.41,0,0,1-1.36-1.8,6.62,6.62,0,0,1,1.5-6.43,3.11,3.11,0,0,1,1.78-.88Zm.21,2.16a2.37,2.37,0,0,0-1.11,1.14,3.78,3.78,0,0,0-.2,3.46,1,1,0,0,0,.76.62,1.5,1.5,0,0,0,1-.49,3.66,3.66,0,0,0,.95-2.23,3.15,3.15,0,0,0-.47-2.2.8.8,0,0,0-.93-.3Z" transform="translate(-0.52 -0.52)"></path></svg> 