<?xml version="1.0" encoding="UTF-8"?> <svg xmlns="http://www.w3.org/2000/svg" id="Layer_1" data-name="Layer 1" width="58" height="58" viewBox="0 0 58 58"><g id="surface1"><path fill="#e74c3c" d="M32,3A29,29,0,1,0,61,32,29,29,0,0,0,32,3Zm0,2A27,27,0,1,1,5,32,27,27,0,0,1,32,5Zm0,3A24,24,0,0,0,8,32a23.78,23.78,0,0,0,5.12,14.82,1,1,0,0,0,.79.38,1,1,0,0,0,.61-.22,1,1,0,0,0,.17-1.4A21.75,21.75,0,0,1,10,32,22,22,0,1,1,49.47,45.38a1,1,0,0,0,1.59,1.21A24,24,0,0,0,32,8Zm0,9a1,1,0,0,0-1,1v3H30a5,5,0,0,0-5,5v2a5,5,0,0,0,5,5h4a3,3,0,0,1,3,3v2a3,3,0,0,1-3,3H33V35a1,1,0,0,0-2,0v6H30a3,3,0,0,1-3-3,1,1,0,0,0-2,0,5,5,0,0,0,5,5h1v3a1,1,0,0,0,2,0V43h1a5,5,0,0,0,5-5V36a5,5,0,0,0-5-5H33V25a1,1,0,0,0-2,0v6H30a3,3,0,0,1-3-3V26a3,3,0,0,1,3-3h4a3,3,0,0,1,3,3,1,1,0,0,0,2,0,5,5,0,0,0-5-5H33V18A1,1,0,0,0,32,17ZM47,47.13a1,1,0,0,0-.77,1.68l1.36,1.47a1,1,0,0,0,1.46-1.36L47.7,47.45A1,1,0,0,0,47,47.13Zm-29.82.18a1,1,0,0,0-.69.33l-1.34,1.48a1,1,0,0,0,.07,1.41,1,1,0,0,0,.67.26,1,1,0,0,0,.74-.33L18,49a1,1,0,0,0-.07-1.41A1,1,0,0,0,17.18,47.31Zm25.91,2.61a1,1,0,0,0-.72,1.51l1,1.71a1,1,0,0,0,.86.49,1,1,0,0,0,.52-.14,1,1,0,0,0,.34-1.37l-1-1.72A1,1,0,0,0,43.09,49.92Zm-22,.14a1,1,0,0,0-1,.49l-1,1.73a1,1,0,0,0,.36,1.36.93.93,0,0,0,.5.14,1,1,0,0,0,.87-.5l1-1.73a1,1,0,0,0-.36-1.36A.91.91,0,0,0,21.12,50.06Zm18,1.8a.81.81,0,0,0-.4,0,1,1,0,0,0-.63,1.26l.64,1.9a1,1,0,0,0,1,.68,1.19,1.19,0,0,0,.32,0,1,1,0,0,0,.63-1.27L40,52.53A1,1,0,0,0,39.08,51.86Zm-13.92.08a1,1,0,0,0-.86.69l-.62,1.9a1,1,0,0,0,.65,1.26,1.06,1.06,0,0,0,.31.05,1,1,0,0,0,.95-.7l.61-1.9A1,1,0,0,0,25.55,52,1,1,0,0,0,25.16,51.94Zm9.19.92A1,1,0,0,0,33.47,54l.22,2a1,1,0,0,0,1,.89h.11a1,1,0,0,0,.88-1.1l-.22-2A1,1,0,0,0,34.35,52.86Zm-4.45,0a1,1,0,0,0-1.09.89l-.2,2a1,1,0,0,0,.9,1.1h.1a1,1,0,0,0,1-.91l.2-2A1,1,0,0,0,29.9,52.89Z" transform="translate(-3 -3)"></path></g></svg> 