<svg viewBox="0 0 846.66 846.66" xml:space="preserve" xmlns="http://www.w3.org/2000/svg" shape-rendering="geometricPrecision" text-rendering="geometricPrecision" image-rendering="optimizeQuality" fill-rule="evenodd" clip-rule="evenodd"><path d="M652.73 649.32v166.42c0 18.73-22.85 27.54-35.55 14.29L421.03 649.32H255.65c-51.56 0-93.66-42.1-93.66-93.66V195.19c0-51.55 42.1-93.65 93.66-93.65h469.97c51.56 0 93.66 42.09 93.66 93.65v360.47c0 51.56-42.1 93.66-93.66 93.66h-72.89zM318.39 326.36c19.53 0 35.36 15.83 35.36 35.36s-15.83 35.36-35.36 35.36-35.36-15.83-35.36-35.36 15.83-35.36 35.36-35.36zm344.49 0c19.53 0 35.36 15.83 35.36 35.36s-15.83 35.36-35.36 35.36-35.36-15.83-35.36-35.36 15.83-35.36 35.36-35.36zm-114.83 0c19.53 0 35.36 15.83 35.36 35.36s-15.83 35.36-35.36 35.36-35.36-15.83-35.36-35.36 15.83-35.36 35.36-35.36zm-114.83 0c19.53 0 35.36 15.83 35.36 35.36s-15.83 35.36-35.36 35.36-35.36-15.83-35.36-35.36 15.83-35.36 35.36-35.36zM121.04 516.75c27.16 0 27.16 41.31 0 41.31-51.56 0-93.66-42.1-93.66-93.66V103.93c0-51.55 42.1-93.65 93.66-93.65h469.98c27.16 0 27.16 41.3 0 41.3H121.04c-28.75 0-52.35 23.6-52.35 52.35V464.4c0 28.75 23.6 52.35 52.35 52.35zm490.39 251.94V628.66c0-11.4 9.25-20.65 20.65-20.65h93.54c28.75 0 52.36-23.6 52.36-52.35V195.19c0-28.75-23.61-52.35-52.36-52.35H255.65c-28.76 0-52.36 23.6-52.36 52.35v360.47c0 28.75 23.6 52.35 52.36 52.35l173.38.05c4.99 0 10 1.79 13.96 5.44l168.44 155.19z" fill="#e74c3c" fill-rule="nonzero" class="fill-000000"></path></svg>