<?xml version="1.0" encoding="UTF-8"?> <svg xmlns="http://www.w3.org/2000/svg" id="Layer_1" data-name="Layer 1" width="58" height="53.85" viewBox="0 0 58 53.85"><g id="surface1"><path fill="#e74c3c" d="M41,4a9,9,0,0,0-8.63,6.47L22.05,6.34A3,3,0,0,0,20,6.28L4.05,11.59a3,3,0,0,0-2,2.85V53.61a2,2,0,0,0,2.63,1.9l16-5.33a1,1,0,0,1,.69,0l18.58,7.44a3.09,3.09,0,0,0,1.12.21,2.75,2.75,0,0,0,1.09-.21l16-6.21A3,3,0,0,0,60,48.63V9.46A2,2,0,0,0,57.28,7.6l-7.62,3A9,9,0,0,0,41,4Zm0,2a7,7,0,1,1-7,7A7,7,0,0,1,41,6Zm0,2a1,1,0,0,0,0,2,3,3,0,0,1,1.93.7,1,1,0,0,0,.64.23,1,1,0,0,0,.64-1.77A5,5,0,0,0,41,8ZM21,8.13a1,1,0,0,1,.35.07L32,12.49c0,.17,0,.34,0,.51a9,9,0,0,0,.35,2.46L21.71,11.21a2,2,0,0,0-1.37,0l-13,4.32A2,2,0,0,0,6,17.39V47.28a2,2,0,0,0,2.63,1.9L21,45.06l19.3,7.72a1.85,1.85,0,0,0,.74.15,2,2,0,0,0,.72-.14l13-5.06A2,2,0,0,0,56,45.87V16a2,2,0,0,0-2.72-1.86l-3.66,1.41A9.08,9.08,0,0,0,50,13c0-.14,0-.28,0-.42l8-3.12V48.63a1,1,0,0,1-.64.93l-16,6.22a1,1,0,0,1-.74,0L22.05,48.34a3,3,0,0,0-1.11-.21,3.09,3.09,0,0,0-1,.15L4,53.61V14.44a1,1,0,0,1,.68-.95L20.62,8.18A1,1,0,0,1,21,8.13Zm0,4.93,12.64,5.06A9,9,0,0,0,40,21.94V39a1,1,0,0,0,2,0V21.94a9,9,0,0,0,6.31-3.71L54,16V45.87L41,50.93,21.71,43.21a1.92,1.92,0,0,0-.74-.15,1.9,1.9,0,0,0-.63.11L8,47.28V17.39ZM11,32a1,1,0,0,0-1,1v2a1,1,0,0,0,2,0V33A1,1,0,0,0,11,32Zm5,0a1,1,0,0,0-1,1v2a1,1,0,0,0,2,0V33A1,1,0,0,0,16,32Zm5,0a1,1,0,0,0-1,1v2a1,1,0,0,0,2,0V33A1,1,0,0,0,21,32Zm5,0a1,1,0,0,0-1,1v2a1,1,0,0,0,2,0V33A1,1,0,0,0,26,32Zm5,0a1,1,0,0,0-1,1v2a1,1,0,0,0,2,0V33A1,1,0,0,0,31,32Zm5,0a1,1,0,0,0-1,1v2a1,1,0,0,0,2,0V33A1,1,0,0,0,36,32Zm10,0a1,1,0,0,0-1,1v2a1,1,0,0,0,2,0V33A1,1,0,0,0,46,32Zm5,0a1,1,0,0,0-1,1v2a1,1,0,0,0,2,0V33A1,1,0,0,0,51,32Z" transform="translate(-2 -4)"></path></g></svg> 