<?xml version="1.0" encoding="UTF-8"?> <svg xmlns="http://www.w3.org/2000/svg" id="Layer_1" data-name="Layer 1" width="28" height="27" viewBox="0 0 28 27"><defs><style>.cls-1{fill-rule:evenodd;}</style></defs><path fill="#e74c3c" class="cls-1" d="M25,27H3a3,3,0,0,1-3-3V20a3,3,0,0,1,3-3H9V11a3,3,0,0,1,3-3h6V3a3,3,0,0,1,3-3h4a3,3,0,0,1,3,3V24A3,3,0,0,1,25,27ZM9,18H3a2,2,0,0,0-2,2v4a2,2,0,0,0,2,2H9Zm3-9a2,2,0,0,0-2,2V26h8V9ZM27,3a2,2,0,0,0-2-2H21a2,2,0,0,0-2,2V26h6a2,2,0,0,0,2-2Z" transform="translate(0 -0.01)"></path></svg> 