<?xml version="1.0" encoding="UTF-8"?> <svg xmlns="http://www.w3.org/2000/svg" id="Layer_1" data-name="Layer 1" width="32.02" height="24" viewBox="0 0 32.02 24"><defs><style>.cls-1{fill-rule:evenodd;}</style></defs><path fill="#e74c3c" id="_1" data-name=" 1" class="cls-1" d="M10.39.92l2.83,2.59h0a1.46,1.46,0,0,0,.94.35H26.92A1.2,1.2,0,0,1,28.12,5V23.08H2.06A1.15,1.15,0,0,1,.91,21.93h0V1.86A1.09,1.09,0,0,1,2.09.92h8.3M10.48,0H2.09A2,2,0,0,0,0,1.84V21.93A2.07,2.07,0,0,0,2.06,24h27V5a2.13,2.13,0,0,0-2.13-2H14.18a.5.5,0,0,1-.33-.12L11,.18A.67.67,0,0,0,10.49,0h0ZM22.06,17.91H.91V19H22.05a.52.52,0,0,0,.52-.52h0v-.08a.51.51,0,0,0-.52-.51h0Zm4.87,0H24.6a.55.55,0,0,0-.55.56.56.56,0,0,0,.56.55h2.32a.46.46,0,0,0,.45-.46v-.2a.45.45,0,0,0-.45-.45Zm-24.44,2A.46.46,0,0,0,2,20.4v1.11a.45.45,0,0,0,.48.44A.46.46,0,0,0,3,21.51V20.4a.47.47,0,0,0-.46-.46Zm3.14,0a.47.47,0,0,0-.46.46v1.11a.47.47,0,0,0,.93,0V20.4a.47.47,0,0,0-.47-.46Zm3,0a.47.47,0,0,0-.47.46v1.11a.47.47,0,0,0,.93,0V20.4a.47.47,0,0,0-.46-.46Zm3,0a.46.46,0,0,0-.46.46v1.11a.45.45,0,0,0,.48.44.46.46,0,0,0,.44-.44V20.4a.47.47,0,0,0-.46-.46Zm3,0a.46.46,0,0,0-.46.46v1.11a.45.45,0,0,0,.46.46.46.46,0,0,0,.46-.46V20.4a.47.47,0,0,0-.46-.46Zm3.15,0a.47.47,0,0,0-.47.46v1.11a.47.47,0,0,0,.93,0V20.4a.47.47,0,0,0-.46-.46Zm3,0a.46.46,0,0,0-.46.46v1.11a.45.45,0,0,0,.48.44.46.46,0,0,0,.44-.44V20.4a.47.47,0,0,0-.46-.46Zm3,0a.46.46,0,0,0-.46.46v1.11a.45.45,0,0,0,.46.46.46.46,0,0,0,.46-.46V20.4a.47.47,0,0,0-.46-.46Zm3,0a.47.47,0,0,0-.46.46v1.11a.46.46,0,1,0,.92,0V20.4a.46.46,0,0,0-.46-.46ZM30.09,5h-1v.93h.76a1.29,1.29,0,0,1,1.28,1.27V22A1.09,1.09,0,0,1,30,23.08h-.95V24H30a2,2,0,0,0,2-2h0V6.9A1.92,1.92,0,0,0,30.09,5ZM11.3,12.56a1.27,1.27,0,0,1,0-.2.61.61,0,0,1,0-.18l0,0a.63.63,0,0,1,1.21.19l0,.29a1.14,1.14,0,0,0,1.21,1,.19.19,0,0,0,0-.07c0-.34,0-.68,0-1a.64.64,0,0,1,.54-.73h.08a.66.66,0,0,1,.64.67v1.2a1.24,1.24,0,0,0,1.25-1.21,1.22,1.22,0,0,0-1.15-1.28c-.51,0-1,0-1.53,0a2.52,2.52,0,0,1-1.17-.37A2.66,2.66,0,0,1,11.4,9.21c0-.12-.05-.25-.07-.38V8.41c0-.05,0-.13,0-.23a2.63,2.63,0,0,1,.81-1.45,2.57,2.57,0,0,1,1.19-.59l.49-.07c0-.21,0-.4,0-.6a.6.6,0,0,1,.58-.62h0a.61.61,0,0,1,.63.59v0c0,.21,0,.41,0,.62l.34,0a2.51,2.51,0,0,1,2.17,2.47.63.63,0,0,1-.57.65.66.66,0,0,1-.68-.58c0-.07,0-.15,0-.22a1.23,1.23,0,0,0-1.09-1.07,13.88,13.88,0,0,0-1.58,0A1.22,1.22,0,0,0,12.6,8.71a.13.13,0,0,0,0,.06,1.14,1.14,0,0,0,1.21,1.05s0,0,0-.07c0-.34,0-.68,0-1A.63.63,0,0,1,14.38,8h.1a.65.65,0,0,1,.64.65s0,.06,0,.09V9.84c1.65.3,2.52,1.19,2.51,2.56s-.89,2.26-2.5,2.53c-.06.48.16,1.19-.63,1.2s-.57-.73-.66-1.21A2.55,2.55,0,0,1,11.4,13c0-.15-.06-.3-.1-.45Z" transform="translate(0.01 0)"></path></svg> 