<?xml version="1.0" encoding="UTF-8"?> <svg xmlns="http://www.w3.org/2000/svg" id="Layer_1" data-name="Layer 1" width="52" height="52" viewBox="0 0 52 52"><g id="surface1"><path fill="#e74c3c" d="M7,6A1,1,0,0,0,6,7V29a1,1,0,0,0,1,1H29a1,1,0,0,0,1-1V7a1,1,0,0,0-1-1ZM35,6a1,1,0,0,0-1,1V29a1,1,0,0,0,1,1H57a1,1,0,0,0,1-1V7a1,1,0,0,0-1-1ZM8,8H28V28H8ZM36,8H56V28H36ZM22,10a4,4,0,1,0,4,4A4,4,0,0,0,22,10Zm20,0a4,4,0,1,0,4,4A4,4,0,0,0,42,10ZM22,12a2,2,0,1,1-2,2A2,2,0,0,1,22,12Zm20,0a2,2,0,1,1-2,2A2,2,0,0,1,42,12Zm7.5,5a4.49,4.49,0,0,0-3.78,2.08,3.54,3.54,0,0,0-3.43,1.22A3,3,0,1,0,41,26h8.5a4.5,4.5,0,0,0,0-9ZM15,17a1,1,0,0,0-.81.39l-5,7A1,1,0,0,0,10,26H25a1,1,0,0,0,.9-.57,1,1,0,0,0-.12-1.05l-4-5a1,1,0,0,0-1.56,0l-1.59,2-2.82-3.94A1,1,0,0,0,15,17Zm34.5,2a2.5,2.5,0,0,1,0,5H41a1,1,0,0,1,0-2,1,1,0,0,1,.8.41,1,1,0,0,0,1.77-.32,1.49,1.49,0,0,1,2.16-.89,1,1,0,0,0,.84.07,1,1,0,0,0,.59-.61A2.49,2.49,0,0,1,49.5,19ZM15,19.72,18.06,24H11.94Zm6,1.88L22.92,24h-2.4l-.68-.95ZM7,34a1,1,0,0,0-1,1V57a1,1,0,0,0,1,1H29a1,1,0,0,0,1-1V35a1,1,0,0,0-1-1Zm28,0a1,1,0,0,0-1,1V57a1,1,0,0,0,1,1H57a1,1,0,0,0,1-1V35a1,1,0,0,0-1-1ZM8,36H28V56H8Zm28,0H56V56H36ZM18,38a4,4,0,0,0-4,4,4,4,0,0,0,0,8,4,4,0,0,0,8,0,4,4,0,0,0,0-8A4,4,0,0,0,18,38Zm28,0a1,1,0,0,0-.8.39c0,.05-.77,1-1.48,2.09-1.24-.24-2.46-.43-2.52-.44a1,1,0,0,0-1.14,1.14c0,.06.2,1.28.44,2.52-1,.71-2,1.44-2.09,1.47A1,1,0,0,0,38,46a1,1,0,0,0,.41.8c.05,0,1,.77,2.09,1.48-.24,1.24-.43,2.46-.44,2.52a1,1,0,0,0,1.14,1.14c.06,0,1.28-.2,2.52-.44.71,1,1.44,2,1.47,2.09A1,1,0,0,0,46,54a1,1,0,0,0,.8-.41c0-.05.77-1,1.48-2.09,1.24.24,2.46.43,2.52.44a1,1,0,0,0,.86-.28,1.05,1.05,0,0,0,.28-.86c0-.06-.2-1.28-.44-2.52,1-.71,2-1.44,2.09-1.47a1,1,0,0,0,0-1.62s-1-.76-2.09-1.47c.24-1.24.43-2.46.44-2.52a1,1,0,0,0-.28-.86,1.05,1.05,0,0,0-.86-.28c-.06,0-1.28.2-2.52.44-.71-1-1.44-2-1.47-2.09A1,1,0,0,0,46,38ZM18,40a2,2,0,0,1,2,2,1.93,1.93,0,0,1-.08.52,3.8,3.8,0,0,0-3.84,0A1.93,1.93,0,0,1,16,42,2,2,0,0,1,18,40Zm28,.72c.31.44.67,1,1,1.44a1,1,0,0,0,1.05.43c.56-.12,1.17-.23,1.7-.32-.09.53-.2,1.14-.32,1.7A1,1,0,0,0,49.84,45c.48.32,1,.67,1.44,1-.44.31-1,.66-1.44,1A1,1,0,0,0,49.41,48c.12.56.23,1.17.32,1.7L48,49.41a1,1,0,0,0-1.05.43c-.31.48-.67,1-1,1.44-.31-.44-.66-1-1-1.44a1,1,0,0,0-.84-.45.75.75,0,0,0-.21,0l-1.7.32c.09-.53.2-1.14.32-1.7A1,1,0,0,0,42.16,47c-.48-.32-1-.67-1.44-1,.44-.31,1-.67,1.44-1A1,1,0,0,0,42.59,44c-.12-.56-.23-1.17-.32-1.7.53.09,1.14.2,1.7.32A1,1,0,0,0,45,42.16C45.34,41.68,45.69,41.16,46,40.72ZM18,44a2,2,0,1,1-2,2A2,2,0,0,1,18,44Zm-4.16,0a2.2,2.2,0,0,1,.67.08,3.83,3.83,0,0,0,0,3.82,2,2,0,1,1-.67-3.9Zm8.32,0a2,2,0,1,1-.67,3.9,3.83,3.83,0,0,0,0-3.82A2.2,2.2,0,0,1,22.16,44Zm-2.24,5.47A1.93,1.93,0,0,1,20,50a2,2,0,0,1-4,0,2.26,2.26,0,0,1,.08-.51A4,4,0,0,0,18,50,3.91,3.91,0,0,0,19.92,49.48Z" transform="translate(-6 -6)"></path></g></svg> 